<svg id="Calque_1" data-name="Calque 1" xmlns="http://www.w3.org/2000/svg" viewBox="0 0 335.11 230.97"><defs><style>.cls-1{fill:#1d1d1c;stroke:#1d1d1c;stroke-miterlimit:10;}.cls-2{fill:#fff;}.cls-3{font-size:41.81px;font-family:Impact, Impact;}</style></defs><title>Logo noir et blanc</title><path id="Tracé_ecrétage" data-name="Tracé ecrétage" class="cls-1" d="M129.57,20.14c43.39,33.54,24.28,141.41,5.5,213.44H116.83c-1-41.07-8.78-94.18-21.71-127C86.19,83.89,63.4,60.13,53,62.74Z" transform="translate(-16.82 -12.43)"/><path class="cls-2" d="M142.75,38.19l5.55,17a38.37,38.37,0,0,1,2.27,11A12.24,12.24,0,0,1,149,72.9a12.9,12.9,0,0,1-4.63,4.31,56.26,56.26,0,0,1-9.69,3.9l-6.22,2q-6.84,2.23-10.39,2A9.68,9.68,0,0,1,111.67,82a21.58,21.58,0,0,1-4.6-8.42L105.59,69,75.36,74,71.3,61.52ZM136,59.07,117.86,65q.19.74.36,1.26a3.91,3.91,0,0,0,2.31,2.82q1.55.49,5.52-.8l5.87-1.92q3.66-1.2,4.43-2.6T136,59.07Z" transform="translate(-16.82 -12.43)"/><path class="cls-2" d="M141.69,203.25l-1.55,5.39c-2.26,11.45-22.71,13.94-23.39,3.49l-1.19-9.33A69.15,69.15,0,0,0,141.69,203.25Zm-5.26,5.5c-5.44.49-11.9,1.06-16.1.24,0,.84,0,1.56.05,1.91C120.75,217.41,135.34,214.82,136.42,208.75Z" transform="translate(-16.82 -12.43)"/><path class="cls-2" d="M146.71,172.89l-.62,4.53c.12,3.27-1.45,6-1.51,7.19-.27,5-14,5.19-14.26,1.44,0-.26-.12-.53-.17-.82a9.38,9.38,0,0,1-.34,1.09,3.87,3.87,0,0,1-1.15,1.73,5,5,0,0,1-1.8.94,26.88,26.88,0,0,1-4.6.34,28.17,28.17,0,0,1-7.73-1.45l-.72-4.7c.45,2.57,14.81,1.71,13.95-2.6l-14,.49-.26-6.93A65.33,65.33,0,0,0,146.71,172.89Zm-7.54,6.23a8.92,8.92,0,0,1-6.92.24C132.08,185.18,138.82,186.14,139.18,179.12Z" transform="translate(-16.82 -12.43)"/><path class="cls-2" d="M148.07,166.91c-9.88,6.72-24.71,5.66-35.27,4.78l-.22-6.5,5.84-.1-.4-2.87-7.73-1.85-1-5.23c13,3.08,26.44,2.27,40.51-.7Zm-21.69-1.44c3.73-.22,9.61.94,14.26-2.38-7.12,1.65-13.19-.87-14.65-.38Z" transform="translate(-16.82 -12.43)"/><path class="cls-2" d="M149.83,149.19c-19.34,5.24-29.71,4-39.62,2.47l-2.38-6.11c10.67,1.56,23.76,1.88,33.28-2.86-11.78,1.43-23.18,1.11-34-1.87l-.69-4.63c10.89,1.74,21.6-.09,30.13-7.08a82.55,82.55,0,0,1-32.25,1.76L102.73,122a160.92,160.92,0,0,0,50.15-4.86L151.58,130c-2,2.39-20.38,8.79-20.89,7.57,7.59,1.14,14.74-.66,20.38-2.74Z" transform="translate(-16.82 -12.43)"/><path class="cls-2" d="M123.66,118.43q-8.09,1.05-11.5,1.13a13.37,13.37,0,0,1-6.44-1.46,12.42,12.42,0,0,1-4.94-4.57,18,18,0,0,1-2.47-7.34,18.4,18.4,0,0,1,.46-7.51,12.26,12.26,0,0,1,3.55-5.78,13.22,13.22,0,0,1,5.83-3.15q3.27-.81,11.55-1.89l9.18-1.19q8.09-1.05,11.5-1.13A13.36,13.36,0,0,1,146.8,87a12.41,12.41,0,0,1,4.94,4.57,18,18,0,0,1,2.47,7.34,18.41,18.41,0,0,1-.46,7.51,12.26,12.26,0,0,1-3.55,5.78,13.22,13.22,0,0,1-5.83,3.15q-3.27.81-11.55,1.89Zm15.92-15.51a17.61,17.61,0,0,0,4.74-1,1.57,1.57,0,0,0,.83-1.75,1.79,1.79,0,0,0-1.05-1.48q-.92-.44-5.06.1L114,102a26.12,26.12,0,0,0-5.72,1.11,1.58,1.58,0,0,0-.87,1.82,1.65,1.65,0,0,0,1.48,1.56,28.26,28.26,0,0,0,6-.4Z" transform="translate(-16.82 -12.43)"/><path class="cls-2" d="M143,190.31l-2,8.24a3.06,3.06,0,0,1-1.65,2.25,5.12,5.12,0,0,1-2.62.84l0-4.71h-5.1v4.14h-5.12v-4.14h-5.92v5.25c-2.72,0-4-.69-4.38-3.18l-1.47-8.71C124,192.08,133.4,192.58,143,190.31Z" transform="translate(-16.82 -12.43)"/><path class="cls-2" d="M139.3,214.74l-4,11.86c-.32.82-.3,1.21-1.29,1.85a3.37,3.37,0,0,1-1.93.62l.22-4-3.69-.18-.18,3.51-3.71-.18.18-3.51-4.28-.21-.22,4.46c-2-.11-2.87-.72-3-2.85l-.49-9.1C125.32,224,132.88,219.86,139.3,214.74Z" transform="translate(-16.82 -12.43)"/><path d="M224.73,42c-12.91-22.49-43.11-29.67-72.86-29.59-22.76.06-56.1,7-90.41,23.26C20.89,54.89,15.67,70.17,17,75.62c1.79,7.28,12.13,8.87,25.8,7.09.78-.1,2.67-.47,5.32-1.08l26.08-7.2L66.76,59.21l75.56-24.67s8.75,21.89,9,22.76L162,54.59c9.44-1.17,16.42-2.18,24.15,3.49C198,66.79,199.87,81,196.8,91.92c-3.8,13.56-23.37,19.37-42.29,24.83l-1.12,13.07s63.46-5.44,76.34-47.2A51.27,51.27,0,0,0,224.73,42Z" transform="translate(-16.82 -12.43)"/><text class="cls-3" transform="translate(159.71 166.98)"><tspan xml:space="preserve">  TOM</tspan><tspan x="0" y="50.17">POMAREDE</tspan></text></svg>